# xmcd CD database file
#
# Track frame offsets:
#	150
#	11865
#	25500
#	39975
#	59850
#	73800
#	83475
#	95701
#
# Disc length: 1299 seconds
#
# Revision: 0
# Processed by: cddbd v1.5.1PL0 Copyright (c) Steve Scherf et al.
# Submitted via: CDex 1.51
#
DISCID=65051108
DTITLE=HERMANN H. and THE PACEMAKERS - INPUT!
DYEAR=1900
DGENRE=Rock
TTITLE0=NET SURFER
TTITLE1=Loser's Parade
TTITLE2=Parachute Honey
TTITLE3=静電気
TTITLE4=ホワイト・ソング
TTITLE5=モンキーモンキーモンキー
TTITLE6=fruity machine gun
TTITLE7=secret
EXTD=
EXTT0=
EXTT1=
EXTT2=
EXTT3=
EXTT4=
EXTT5=
EXTT6=
EXTT7=
PLAYORDER=
